<svg width="24" height="24" viewBox="0 0 24 24" fill="none" xmlns="http://www.w3.org/2000/svg">
<g clip-path="url(#clip0)">
<path d="M2.30353 8.38377C2.60712 8.598 3.52228 9.23428 5.04903 10.2923C6.57583 11.3503 7.74547 12.1649 8.55799 12.7362C8.64725 12.7988 8.83691 12.935 9.12704 13.1448C9.41722 13.3547 9.65834 13.5244 9.85019 13.6538C10.0422 13.7832 10.2743 13.9283 10.5468 14.089C10.8191 14.2495 11.0758 14.3703 11.3169 14.4502C11.558 14.5308 11.7812 14.5707 11.9865 14.5707H12H12.0135C12.2188 14.5707 12.4421 14.5308 12.6832 14.4502C12.9242 14.3703 13.1812 14.2494 13.4533 14.089C13.7256 13.9282 13.9577 13.7832 14.1497 13.6538C14.3417 13.5244 14.5826 13.3547 14.8729 13.1448C15.163 12.9348 15.3528 12.7988 15.4421 12.7362C16.2634 12.1649 18.3529 10.7139 21.7099 8.38349C22.3616 7.92833 22.9062 7.37911 23.3436 6.73622C23.7814 6.09361 24 5.41948 24 4.7142C24 4.12483 23.7878 3.62032 23.3637 3.20072C22.9396 2.78102 22.4373 2.57129 21.8571 2.57129H2.14277C1.45531 2.57129 0.92627 2.8034 0.555734 3.26761C0.185245 3.73192 0 4.31228 0 5.00865C0 5.57114 0.245617 6.18068 0.736616 6.83689C1.22757 7.49315 1.75004 8.00882 2.30353 8.38377Z" fill="white"/>
<path d="M22.6605 9.8165C19.7323 11.7985 17.5088 13.3388 15.9911 14.4371C15.4822 14.812 15.0693 15.1046 14.7523 15.3143C14.4352 15.5241 14.0136 15.7384 13.4867 15.957C12.96 16.176 12.4691 16.2851 12.0137 16.2851H12H11.9866C11.5312 16.2851 11.0401 16.176 10.5134 15.957C9.98669 15.7384 9.56474 15.5241 9.24778 15.3143C8.9309 15.1046 8.51791 14.812 8.00904 14.4371C6.80362 13.5532 4.58491 12.0128 1.35281 9.8165C0.843756 9.47744 0.392865 9.0888 0 8.65137V19.285C0 19.8746 0.209731 20.3789 0.629428 20.7985C1.04903 21.2183 1.55359 21.4281 2.14291 21.4281H21.8573C22.4464 21.4281 22.9509 21.2183 23.3706 20.7985C23.7904 20.3787 24 19.8747 24 19.285V8.65137C23.616 9.07974 23.1697 9.46839 22.6605 9.8165Z" fill="white"/>
</g>
<defs>
<clipPath id="clip0">
<rect width="24" height="24" fill="white"/>
</clipPath>
</defs>
</svg>
